<svg width="230" height="58" viewBox="0 0 230 58" fill="none" xmlns="http://www.w3.org/2000/svg">
<g clip-path="url(#clip0_947_77)">
<path d="M32.5803 0.0397849C32.3647 0.124087 32.2004 0.306768 32.108 0.559673C32.0361 0.756377 32.0259 1.50093 32.0259 7.3318V13.8793H32.7548H33.4838V10.5634V7.24755H44.2742H55.0647V13.9636C55.0647 17.6447 55.075 20.6796 55.1058 20.6796C55.1263 20.6796 55.4343 20.5953 55.7936 20.4829L56.4507 20.3003L56.461 10.5072C56.4712 0.910902 56.4712 0.714171 56.3788 0.503417C56.3275 0.376964 56.2043 0.222411 56.1119 0.15216C55.9579 0.0397575 55.4035 0.0257072 44.3153 0.0116569C37.9396 -0.0164437 32.6522 0.0116843 32.5803 0.0397849ZM35.917 3.6366V5.29451H34.7055H33.494V3.6366V1.9787H34.7055H35.917V3.6366ZM39.7568 3.6366V5.29451H38.5659H37.3749V3.6366V1.9787H38.5659H39.7568V3.6366ZM43.6069 3.6366V5.29451H42.4159H41.225V3.6366V1.9787H42.4159H43.6069V3.6366ZM47.4467 3.6366V5.29451H46.2557H45.0648V3.6366V1.9787H46.2557H47.4467V3.6366ZM51.2865 3.6366V5.29451H50.0955H48.9046V3.6366V1.9787H50.0955H51.2865V3.6366ZM55.0749 3.6366V5.29451H53.9148H52.7546V3.6366V1.9787H53.9148H55.0749V3.6366Z" fill="url(#paint0_linear_947_77)"/>
<path d="M40.6399 10.0717C40.5167 10.1419 40.3833 10.3106 40.3217 10.4371C40.219 10.6619 40.219 10.7743 40.219 17.9118C40.219 24.4312 40.2293 25.1899 40.3011 25.4006C40.4141 25.7097 40.6502 25.9064 40.9377 25.9064C41.143 25.9064 41.4715 25.6395 45.4038 22.3377C47.7343 20.3706 49.6953 18.6986 49.7569 18.6284C50.0341 18.2911 50.0136 17.6168 49.7364 17.2515C49.4797 16.9283 41.2046 10.0156 41.0301 9.97344C40.9069 9.94534 40.7837 9.97333 40.6399 10.0717ZM44.9315 15.467C47.1696 17.3498 47.837 17.9399 47.7857 17.9961C47.7138 18.0944 41.8104 23.0682 41.7077 23.1244C41.6461 23.1525 41.6358 22.3095 41.6358 17.9258V12.6851L41.8309 12.8396C41.9336 12.938 43.3298 14.1182 44.9315 15.467Z" fill="url(#paint1_linear_947_77)"/>
<path d="M2.96056 15.8602C2.70388 15.9164 2.17001 16.1835 1.90307 16.3661C1.04065 16.9843 0.43491 18.038 0.126905 19.4149L0.0139704 19.9208L0.00370291 31.2032C-0.00656394 38.8746 0.00370385 42.6822 0.0447712 43.1178C0.229574 45.3799 1.44106 47.1362 3.07349 47.4875C3.29936 47.5437 8.15558 47.5577 18.3916 47.5577C30.7221 47.5577 33.4428 47.5437 33.7611 47.4594C34.8699 47.1784 35.8145 46.2089 36.3175 44.8319C36.7179 43.722 36.6871 44.5369 36.6871 31.6809C36.6871 18.9092 36.7077 19.6679 36.3381 18.6142C35.8658 17.2653 35.0136 16.324 33.9459 15.9446C33.5558 15.8041 33.3915 15.804 18.33 15.8181C9.93175 15.8321 3.03242 15.8462 2.96056 15.8602ZM33.5044 17.8273C34.3155 18.0661 35.0034 19.0216 35.1574 20.1737C35.2293 20.6935 35.2293 42.6261 35.1574 43.174C35.0137 44.2699 34.4079 45.1692 33.6379 45.4502C33.3402 45.5626 32.2211 45.5625 18.176 45.5484L3.03242 45.5344L2.69362 45.3097C2.24188 45.0146 1.84147 44.4666 1.63613 43.8624L1.47186 43.3988L1.46159 31.8494C1.45133 20.4546 1.45133 20.286 1.554 19.8364C1.77987 18.8389 2.47801 17.9819 3.21723 17.8133C3.28909 17.7992 10.0755 17.7852 18.289 17.7711C29.0589 17.7571 33.3094 17.7711 33.5044 17.8273Z" fill="url(#paint2_linear_947_77)"/>
<path d="M4.50066 21.2135C4.41852 21.2838 4.30559 21.4523 4.26452 21.5788C4.18239 21.7896 4.17212 22.4077 4.17212 31.709V41.6144L4.28505 41.8533C4.35692 41.9938 4.49039 42.1344 4.63413 42.2187C4.87026 42.3592 4.87026 42.3592 5.1064 42.2187C5.25014 42.1344 5.39387 41.9938 5.45547 41.8533L5.56841 41.6144V31.7231C5.56841 20.7639 5.58894 21.5226 5.23987 21.2275C5.0448 21.0308 4.70599 21.0309 4.50066 21.2135Z" fill="url(#paint3_linear_947_77)"/>
<path d="M26.9336 21.1854C26.6256 21.3259 26.2047 21.8879 26.0609 22.3234C25.948 22.6747 25.9377 22.759 25.9377 24.1781C25.9377 25.9203 25.9685 26.131 26.3792 26.7212C26.8207 27.3534 26.831 27.3676 29.1923 27.3676C31.5537 27.3676 31.564 27.3675 32.0055 26.7212C32.4161 26.131 32.4469 25.9203 32.4469 24.1781C32.4469 22.759 32.4469 22.6747 32.3237 22.3234C32.1697 21.8738 31.7488 21.3259 31.4305 21.1713C31.0917 21.0308 27.2622 21.0309 26.9336 21.1854ZM30.989 24.2202V25.4005H29.1923H27.3956L27.3854 24.2905C27.3854 23.6863 27.3854 23.1524 27.3956 23.0962C27.4162 23.026 27.7755 23.0119 29.2026 23.026L30.989 23.0401V24.2202Z" fill="url(#paint4_linear_947_77)"/>
<path d="M17.3136 22.8994C16.3587 23.1102 15.3423 23.6581 14.5723 24.3606C14.0795 24.8102 13.2581 25.9061 12.9091 26.5805C12.0672 28.1822 11.636 29.9948 11.636 31.9619C11.636 34.3504 12.2725 36.5141 13.4635 38.2422C15.1472 40.6589 17.601 41.6425 19.9624 40.8275C22.6112 39.9143 24.5619 36.8934 24.9521 33.1139C25.024 32.3973 24.9829 30.8379 24.8802 30.1353C24.5825 28.3088 23.987 26.7914 23.0322 25.4987C22.0774 24.1921 21.0507 23.4192 19.6955 22.9977C19.1103 22.8291 17.8988 22.773 17.3136 22.8994ZM19.0281 24.8384C19.716 24.9227 20.6297 25.4144 21.3382 26.0748C21.8002 26.4963 22.3751 27.3252 22.7242 28.0558C23.7509 30.2336 23.8535 32.9313 22.9809 35.2496C22.293 37.0761 21.1226 38.3687 19.6031 38.9308C19.2745 39.0572 19.0692 39.0853 18.33 39.0853C17.3033 39.0853 16.9131 38.9869 16.1226 38.4811C15.0138 37.7646 14.2027 36.6968 13.6586 35.2637C13.2171 34.0975 13.0323 32.9454 13.0836 31.6106C13.1247 30.613 13.2581 29.8262 13.5456 28.9972C13.8536 28.1261 14.0795 27.6624 14.562 26.988C15.4142 25.7656 16.5743 24.9928 17.8166 24.8242C18.1965 24.754 18.3916 24.7541 19.0281 24.8384Z" fill="url(#paint5_linear_947_77)"/>
<path d="M18.0528 26.2857C17.9706 26.3279 17.8474 26.4684 17.7755 26.5667C17.6729 26.7213 17.6523 26.8196 17.6523 27.199C17.6523 27.6345 17.6626 27.6486 17.8371 27.8734C17.9706 28.042 18.0836 28.1123 18.2684 28.1404C19.2642 28.2949 19.6852 28.5337 20.2191 29.2082C20.7119 29.8264 21.0609 30.838 21.0712 31.5967C21.0712 32.2571 21.2868 32.7489 21.6256 32.8754C22.0055 33.0159 22.447 32.6504 22.5188 32.1306C22.5702 31.7653 22.4675 30.7256 22.3238 30.1495C22.0876 29.1941 21.7693 28.5197 21.2457 27.8313C20.5989 26.9742 19.9008 26.4824 19.0281 26.2857C18.4737 26.1733 18.2478 26.1733 18.0528 26.2857Z" fill="url(#paint6_linear_947_77)"/>
<path d="M61.8101 20.6937C56.7383 22.1549 52.5392 23.4054 52.4776 23.4616C52.416 23.5178 52.3133 23.6442 52.2722 23.7566C52.1901 23.9392 52.1798 24.5996 52.1593 35.2076L52.1388 46.4759L51.8 46.0965C51.3585 45.6188 50.6911 45.1411 50.1265 44.9023C49.7055 44.7196 49.6131 44.7055 48.7918 44.7055C47.9807 44.7055 47.8678 44.7197 47.4674 44.8883C45.7323 45.6189 44.5002 47.3611 44.0074 49.8059C43.9458 50.1431 43.9253 50.5083 43.9253 51.4075C43.9253 52.4894 43.9356 52.6439 44.069 53.2059C44.6234 55.6928 46.0813 57.5053 47.9191 57.9409C48.3914 58.0533 49.531 57.9971 49.9622 57.8425C51.7281 57.1821 52.9909 55.44 53.5145 52.9109L53.6275 52.377L53.6377 43.2444L53.648 34.1117L61.9847 31.6247C66.574 30.2619 70.3419 29.166 70.3624 29.1941C70.383 29.2222 70.4035 32.1728 70.4138 35.7556C70.424 42.1485 70.424 42.2608 70.3316 42.1625C70.2803 42.1063 70.075 41.8955 69.8902 41.7128C68.7608 40.5326 67.19 40.097 65.7937 40.5888C65.3317 40.7433 64.5514 41.2351 64.1818 41.6144C62.806 42.9773 62.0463 45.1411 62.1489 47.4313C62.2208 49.1173 62.6623 50.5083 63.5144 51.7166C64.4693 53.0655 65.6499 53.7539 67.0052 53.7539C68.3399 53.7539 69.5411 53.0655 70.4959 51.7448C71.0811 50.9299 71.4918 49.9463 71.7484 48.6958L71.8614 48.1619L71.8717 33.4934C71.8819 19.6117 71.8717 18.8109 71.7998 18.5861C71.6766 18.277 71.4918 18.0944 71.2454 18.0522C71.0914 18.0382 67.9497 18.9233 61.8101 20.6937ZM70.4446 23.6723V27.1005L70.3316 27.1287C70.0236 27.227 53.9663 32.0041 53.802 32.0463L53.6172 32.0884L53.6275 28.5758L53.6377 25.0632L61.9539 22.6607C66.5329 21.34 70.3111 20.258 70.3624 20.258C70.4343 20.244 70.4446 20.4548 70.4446 23.6723ZM67.5904 42.4575C68.6171 42.7104 69.5821 43.708 70.0339 44.9725C70.3008 45.7031 70.3932 46.2932 70.4035 47.0519C70.4035 47.8809 70.3214 48.3726 70.0544 49.1595C69.6643 50.2835 68.9045 51.1827 68.0216 51.5761C67.3234 51.8993 66.307 51.815 65.6089 51.4075C64.6643 50.8314 63.8943 49.581 63.6376 48.2041C63.5247 47.5859 63.5658 46.2511 63.7095 45.6329C63.8738 44.9585 64.1612 44.3403 64.5822 43.7642C65.3727 42.6683 66.5021 42.1764 67.5904 42.4575ZM49.4386 46.7709C50.4447 47.066 51.338 48.0355 51.8 49.3281C52.3646 50.9439 52.2312 52.7563 51.4201 54.2597C50.8349 55.3416 49.7569 56.0722 48.7404 56.0722C47.6932 56.0722 46.6049 55.3556 45.9992 54.2597C45.1984 52.8125 45.0546 50.9439 45.6296 49.3281C45.9889 48.3165 46.5228 47.5999 47.2826 47.094C47.9191 46.6866 48.7096 46.5602 49.4386 46.7709Z" fill="url(#paint7_linear_947_77)"/>
<path d="M38.145 29.0253V29.9949H38.9561H39.7672V31.6246V33.2404H38.9561H38.145V34.2379V35.2356H44.4591H50.7732V34.2379V33.2404H49.839H48.9047V31.6107V29.9807H49.839H50.7732V29.0113V28.0418H44.4591H38.145V29.0253ZM43.607 31.6246V33.2404H42.416H41.2251V31.6107V29.9807H42.416H43.607V31.6246ZM47.4468 31.6246V33.2404H46.2558H45.0649V31.6107V29.9807H46.2558H47.4468V31.6246Z" fill="url(#paint8_linear_947_77)"/>
<path d="M99.9388 16.24C100.207 16.24 100.395 16.497 100.395 16.8275V19.6552C100.395 20.0224 100.234 20.2427 99.939 20.2427H89.5277V29.2029H95.4579C95.7262 29.2029 95.914 29.4599 95.914 29.8272V32.5814C95.914 32.9853 95.7262 33.2056 95.4579 33.2056H89.5277V44.9934C89.5277 45.3974 89.3667 45.6173 89.1252 45.6173H87.5153C86.8713 45.6173 86.4956 44.9934 86.4956 44.1488V16.8281C86.4956 16.4976 86.6566 16.2405 86.9249 16.2405L99.9388 16.24ZM104.339 20.6837C103.454 20.6837 102.73 19.7289 102.73 18.4805C102.73 17.2686 103.454 16.2773 104.339 16.2773C105.225 16.2773 105.949 17.2688 105.949 18.4805C105.949 19.729 105.225 20.6837 104.339 20.6837ZM105.386 27.4395H103.32C103.051 27.4395 102.89 27.697 102.89 28.0271V44.1481C102.89 44.9927 103.266 45.6166 103.91 45.6166H105.413C105.654 45.6166 105.815 45.3966 105.815 44.9927V28.0272C105.815 27.697 105.627 27.4395 105.386 27.4395ZM112.336 16.24H110.27C110.001 16.24 109.84 16.497 109.84 16.8275V44.1483C109.84 44.9929 110.216 45.6168 110.887 45.6168H112.336C112.604 45.6168 112.765 45.3968 112.765 44.9929V16.8272C112.765 16.4967 112.578 16.24 112.336 16.24ZM139.089 44.8461C139.17 45.25 139.063 45.6176 138.821 45.6176H137.077C136.406 45.6176 136.031 44.9937 136.031 44.1491V34.5647C136.031 32.1778 134.796 30.7823 133.025 30.7823C131.496 30.7823 130.208 31.9941 129.108 33.4996C129.134 33.7199 129.134 33.9403 129.134 34.1977V42.3129C129.161 43.3411 129.215 44.1123 129.295 44.8467C129.349 45.2506 129.268 45.6175 129.027 45.6175H127.283C126.585 45.6175 126.236 44.9936 126.236 44.149V34.5646C126.236 32.1777 125.002 30.7822 123.231 30.7822C121.701 30.7822 120.413 31.9573 119.34 33.4629V45.0303C119.34 45.3605 119.152 45.6175 118.911 45.6175H116.818C116.576 45.6175 116.415 45.3605 116.415 45.0303V28.0278C116.415 27.6976 116.576 27.4402 116.818 27.4402H118.267C118.911 27.4402 119.313 28.3583 119.34 29.0193V29.3865C120.387 28.2845 121.782 27.2199 123.606 27.2199C125.458 27.2199 127.309 28.2845 128.329 30.3409C129.403 28.9821 131.066 27.2194 133.427 27.2194C136.191 27.2194 138.955 29.6064 138.955 34.197V42.3122C138.955 43.3404 139.035 44.1116 139.089 44.8461ZM154.357 27.4395L152.049 27.4392C151.808 27.4392 151.727 27.6228 151.62 27.9904L147.971 39.0067L144.295 27.9904C144.187 27.6228 144.107 27.4392 143.865 27.4392H141.45C141.209 27.4392 141.075 27.6228 141.182 27.9904L147.381 45.3595C147.461 45.6166 147.676 45.8002 147.837 45.8002H148.105C148.266 45.8002 148.481 45.6166 148.561 45.3595L154.706 27.9904C154.84 27.6599 154.598 27.4395 154.357 27.4395ZM158.918 20.6837C158.033 20.6837 157.308 19.7289 157.308 18.4805C157.308 17.2686 158.033 16.2773 158.918 16.2773C159.804 16.2773 160.528 17.2688 160.528 18.4805C160.528 19.729 159.803 20.6837 158.918 20.6837ZM159.965 27.4395H157.898C157.63 27.4395 157.469 27.697 157.469 28.0271V44.1481C157.469 44.9927 157.845 45.6166 158.489 45.6166H159.991C160.233 45.6166 160.394 45.3966 160.394 44.9927V28.0272C160.394 27.697 160.206 27.4395 159.965 27.4395ZM163.694 42.9732L164.606 40.9906C164.794 40.5862 164.955 40.4761 165.224 40.6597C165.25 40.7331 166.887 42.0551 168.685 42.0551C170.241 42.0551 170.778 41.2105 170.778 40.3659C170.778 39.1174 169.785 38.6771 167.987 38.0529C165.438 37.1348 163.748 35.3355 163.748 32.5445C163.748 29.7903 165.465 27.2199 168.685 27.2199C170.644 27.2199 171.985 28.138 173.059 28.9826C173.327 29.2029 173.461 29.5334 173.3 29.8272L172.307 31.9203C172.173 32.2141 171.959 32.3242 171.717 32.2141C171.019 31.7371 169.892 31.039 168.685 31.039C167.182 31.039 166.78 32.0672 166.78 32.6915C166.78 33.7564 167.907 34.2705 169.275 34.7842C171.664 35.6656 174.052 37.2446 174.052 40.4395C174.052 43.5241 171.905 45.8739 168.685 45.8739C166.485 45.8739 164.499 44.4054 163.828 43.671C163.64 43.5241 163.587 43.1568 163.694 42.9732ZM188.005 44.809C187.656 41.2102 187.63 37.8689 187.737 34.3439C187.872 30.0107 186.128 27.2199 182.854 27.2199C180.707 27.2199 178.48 28.1012 177.165 29.0927C176.924 29.2763 176.763 29.6065 176.87 29.937L177.541 32.0668C177.648 32.434 177.836 32.5442 178.185 32.3239C179.902 31.2589 181.298 30.7448 182.666 30.7448C184.115 30.7448 184.974 31.516 184.92 33.6091C179.956 34.7838 176.172 35.9956 176.172 40.7695C176.172 43.9643 177.863 45.8001 180.6 45.8001C182.881 45.8001 184.061 44.8457 185.188 43.6706C185.322 44.7722 185.564 45.6168 186.1 45.6168H187.71C187.952 45.6168 188.032 45.2129 188.005 44.809ZM181.11 42.6428C180.009 42.6428 179.151 42.1286 179.151 40.7332C179.151 38.4932 182.156 37.7587 184.866 36.9876C184.839 38.1994 184.839 39.8152 184.866 40.8801C183.981 41.7982 182.478 42.6428 181.11 42.6428ZM200.483 28.358C200.778 28.615 200.858 28.835 200.67 29.2389L199.57 31.4421C199.436 31.6992 199.248 31.7726 199.007 31.6992C198.443 31.332 197.96 31.0015 197.075 31.0015C196.19 31.0015 194.794 31.5156 194.043 33.7923V45.0295C194.043 45.3597 193.882 45.6167 193.64 45.6167H191.52C191.279 45.6167 191.118 45.3597 191.118 45.0295V28.027C191.118 27.6968 191.306 27.4394 191.52 27.4394H192.996C193.64 27.4394 194.043 28.3574 194.043 29.0184V29.2758C194.982 28.1008 196.109 27.2929 197.585 27.2929C198.953 27.2929 199.973 27.8806 200.483 28.358ZM215.831 44.8461C215.885 45.25 215.805 45.6168 215.564 45.6168H213.819C213.122 45.6168 212.773 44.9929 212.773 44.1483V34.6006C212.773 32.177 211.539 30.7815 209.768 30.7815C208.238 30.7815 206.95 31.773 205.877 33.2051V45.0299C205.877 45.3601 205.689 45.6171 205.448 45.6171H203.354C203.113 45.6171 202.952 45.3601 202.952 45.0299V28.0273C202.952 27.6972 203.113 27.4398 203.354 27.4398H204.803C205.447 27.4398 205.85 28.3578 205.877 29.0188V29.386C206.923 28.284 208.318 27.1824 210.143 27.1824C212.907 27.1824 215.67 29.5698 215.67 34.1599V42.3122C215.697 43.3404 215.751 44.1116 215.831 44.8461ZM230.241 44.809C229.892 41.2102 229.866 37.8689 229.973 34.3439C230.107 30.0107 228.363 27.2199 225.089 27.2199C222.943 27.2199 220.716 28.1012 219.401 29.0927C219.159 29.2763 218.998 29.6065 219.106 29.937L219.776 32.0668C219.884 32.434 220.072 32.5442 220.42 32.3239C222.138 31.2589 223.533 30.7448 224.901 30.7448C226.35 30.7448 227.209 31.516 227.155 33.6091C222.191 34.7838 218.408 35.9956 218.408 40.7695C218.408 43.9643 220.098 45.8001 222.835 45.8001C225.116 45.8001 226.297 44.8457 227.424 43.6706C227.558 44.7722 227.799 45.6168 228.336 45.6168H229.946C230.187 45.6168 230.268 45.2129 230.241 44.809ZM223.345 42.6428C222.245 42.6428 221.386 42.1286 221.386 40.7332C221.386 38.4932 224.391 37.7587 227.102 36.9876C227.075 38.1994 227.075 39.8152 227.102 40.8801C226.216 41.7982 224.714 42.6428 223.345 42.6428Z" fill="url(#paint9_linear_947_77)"/>
</g>
<defs>
<linearGradient id="paint0_linear_947_77" x1="36.7049" y1="10.3398" x2="53.0815" y2="10.3398" gradientUnits="userSpaceOnUse">
<stop stop-color="#5B4935"/>
<stop offset="0.501721" stop-color="#BD9060"/>
<stop offset="1" stop-color="#5B4935"/>
</linearGradient>
<linearGradient id="paint1_linear_947_77" x1="42.0829" y1="17.9347" x2="48.6068" y2="17.9347" gradientUnits="userSpaceOnUse">
<stop stop-color="#5B4935"/>
<stop offset="0.501721" stop-color="#BD9060"/>
<stop offset="1" stop-color="#5B4935"/>
</linearGradient>
<linearGradient id="paint2_linear_947_77" x1="7.02397" y1="31.685" x2="31.6079" y2="31.685" gradientUnits="userSpaceOnUse">
<stop stop-color="#5B4935"/>
<stop offset="0.501721" stop-color="#BD9060"/>
<stop offset="1" stop-color="#5B4935"/>
</linearGradient>
<linearGradient id="paint3_linear_947_77" x1="4.43949" y1="31.7012" x2="5.37527" y2="31.7012" gradientUnits="userSpaceOnUse">
<stop stop-color="#5B4935"/>
<stop offset="0.501721" stop-color="#BD9060"/>
<stop offset="1" stop-color="#5B4935"/>
</linearGradient>
<linearGradient id="paint4_linear_947_77" x1="27.1839" y1="24.2176" x2="31.5457" y2="24.2176" gradientUnits="userSpaceOnUse">
<stop stop-color="#5B4935"/>
<stop offset="0.501721" stop-color="#BD9060"/>
<stop offset="1" stop-color="#5B4935"/>
</linearGradient>
<linearGradient id="paint5_linear_947_77" x1="14.1923" y1="31.9697" x2="23.1395" y2="31.9697" gradientUnits="userSpaceOnUse">
<stop stop-color="#5B4935"/>
<stop offset="0.501721" stop-color="#BD9060"/>
<stop offset="1" stop-color="#5B4935"/>
</linearGradient>
<linearGradient id="paint6_linear_947_77" x1="18.5866" y1="29.5535" x2="21.8566" y2="29.5535" gradientUnits="userSpaceOnUse">
<stop stop-color="#5B4935"/>
<stop offset="0.501721" stop-color="#BD9060"/>
<stop offset="1" stop-color="#5B4935"/>
</linearGradient>
<linearGradient id="paint7_linear_947_77" x1="49.2764" y1="38.026" x2="68.0051" y2="38.026" gradientUnits="userSpaceOnUse">
<stop stop-color="#5B4935"/>
<stop offset="0.501721" stop-color="#BD9060"/>
<stop offset="1" stop-color="#5B4935"/>
</linearGradient>
<linearGradient id="paint8_linear_947_77" x1="40.5627" y1="31.6387" x2="49.0247" y2="31.6387" gradientUnits="userSpaceOnUse">
<stop stop-color="#5B4935"/>
<stop offset="0.501721" stop-color="#BD9060"/>
<stop offset="1" stop-color="#5B4935"/>
</linearGradient>
<linearGradient id="paint9_linear_947_77" x1="86.4956" y1="46.4" x2="230" y2="46.4" gradientUnits="userSpaceOnUse">
<stop stop-color="#5B4935"/>
<stop offset="0.5" stop-color="#BD9060"/>
<stop offset="1" stop-color="#5B4935"/>
</linearGradient>
<clipPath id="clip0_947_77">
<rect width="230" height="58" fill="white"/>
</clipPath>
</defs>
</svg>
